<svg width="75" height="51" viewBox="0 0 75 51" fill="none" xmlns="http://www.w3.org/2000/svg">
<path d="M31.7032 50.5437C30.8719 50.278 30.8688 50.1624 31.6344 47.8405C32.3969 45.5187 32.0469 43.3655 30.6344 41.6718C28.7063 39.3686 27.7782 37.403 27.4813 34.9999C27.2313 32.9374 27.1469 32.7718 26.3063 32.6124C25.7438 32.503 24.9626 32.7187 23.1094 33.4905C20.4094 34.6155 19.7657 35.1155 19.1313 36.553C18.7938 37.3093 18.7563 37.7624 18.9438 38.6374C19.1782 39.7062 20.1251 41.4249 20.4876 41.428C20.5813 41.428 21.1001 41.7843 21.6376 42.2155C22.5344 42.9343 22.5969 43.0593 22.3407 43.6468C21.7907 44.9218 20.4813 46.4655 19.9532 46.4655C19.6563 46.4655 18.4469 45.6155 17.1094 44.4749C14.4969 42.2343 14.3844 42.0062 14.1094 38.3343C13.7969 33.9499 14.8719 31.903 19.6719 27.7874L22.6844 25.203L22.8782 23.6405C23.0751 22.0218 22.7969 18.178 22.3251 16.0562C22.0438 14.8062 21.1313 13.6093 20.2626 13.3687C19.3157 13.1062 18.7626 13.6499 18.0376 15.5374C17.2563 17.5812 16.5188 18.2937 15.1626 18.2937C14.3188 18.2937 13.5376 17.753 12.9938 16.803C12.6032 16.1249 12.3751 12.0343 12.6094 9.88115C12.7219 8.8499 12.7282 7.7999 12.6251 7.55303C12.4563 7.15303 11.0001 6.2874 7.56256 4.54678C7.00179 4.26885 6.46091 3.95247 5.94381 3.5999C5.45993 3.27562 4.94737 2.99632 4.41256 2.76553C3.10631 2.1874 -0.296818 0.196777 0.0219319 0.196777C0.625057 0.196777 3.17818 0.984277 4.54068 1.5874C5.37193 1.95615 6.16568 2.25928 6.30631 2.25928C6.44693 2.25928 8.05006 2.7749 9.86881 3.40303C11.6813 4.03428 13.3407 4.5499 13.5563 4.5499C14.0563 4.5499 14.1344 4.1124 13.9751 2.21865C13.9001 1.35928 13.9032 0.656153 13.9813 0.656153C14.0594 0.656153 14.3938 0.821778 14.7251 1.0249C15.7376 1.64365 17.9126 2.0249 20.4751 2.0249C22.9219 2.03115 26.1188 2.51553 27.3376 3.07178C29.0876 3.86553 31.1219 6.35303 33.7001 10.853C35.4938 13.9843 37.4188 15.3093 40.1782 15.3124C41.2938 15.3124 44.2719 14.853 48.3032 14.0624C51.6251 13.4062 56.0126 13.253 57.7157 13.7405C59.7938 14.3343 62.5438 15.928 64.8094 17.8468C66.9344 19.6468 67.2657 20.0468 68.5719 22.4343C70.1344 25.2843 71.8532 29.3312 73.3844 33.753C73.6032 34.3843 74.0594 35.4405 74.4032 36.1062C75.3219 37.8812 75.2782 37.9905 73.6063 37.9905C71.7938 37.9905 70.9407 37.703 69.7532 36.6937C68.6126 35.7249 68.3157 35.1312 66.5282 30.2874C65.6157 27.7999 64.7251 26.3093 64.1532 26.3093C63.7657 26.3093 62.9782 28.9718 62.9782 30.2874C62.9782 31.2249 63.5626 32.4812 65.0719 34.8093C67.5344 38.5905 68.8282 43.9405 68.3094 48.1843L68.0907 50.0155L66.4469 50.0843C63.8688 50.1905 63.8938 50.228 63.8938 46.5374C63.8938 42.6093 63.6282 41.7593 61.8938 40.178C61.1751 39.5218 59.5563 37.6468 58.3032 36.0218C57.0469 34.3968 55.8469 33.0655 55.6344 33.0655C55.1407 33.0655 54.8969 34.403 54.8719 37.228C54.8532 39.0874 54.7782 39.403 54.2313 39.978C52.7438 41.5312 51.7001 44.3624 51.0563 48.5843C50.9126 49.5218 50.7907 49.6937 50.1844 49.828C49.2938 50.028 46.8251 50.0624 46.6126 49.8749C46.4282 49.7187 46.7501 47.178 47.4813 43.0312C47.7563 41.4562 48.0594 39.3437 48.1501 38.3343C48.3157 36.5405 47.9469 33.178 47.5126 32.4999C47.3313 32.2187 46.4094 32.1562 42.1001 32.1374C39.2407 32.128 36.1063 32.0343 35.1313 31.9312L33.3657 31.7437V32.5249C33.3657 33.3687 33.5844 34.1062 35.0219 38.2187C35.5282 39.6687 36.2626 41.8749 36.6563 43.1249L37.3657 45.3999L36.7657 47.2499C36.4729 48.1795 36.1093 49.0852 35.6782 49.9593C35.2032 50.7905 35.1469 50.8155 33.8188 50.803C33.106 50.7981 32.3961 50.7111 31.7032 50.5437Z" fill="#38BCDA"/>
</svg>
